<?xml version="1.0" standalone="no"?>
<!DOCTYPE svg PUBLIC "-//W3C//DTD SVG 20010904//EN"
 "http://www.w3.org/TR/2001/REC-SVG-20010904/DTD/svg10.dtd">
<svg version="1.0" xmlns="http://www.w3.org/2000/svg"
 width="512.000000pt" height="512.000000pt" viewBox="0 0 512.000000 512.000000"
 preserveAspectRatio="xMidYMid meet">
<metadata>
Created by potrace 1.16, written by Peter Selinger 2001-2019
</metadata>
<g transform="translate(0.000000,512.000000) scale(0.100000,-0.100000)"
fill="#000000" stroke="none">
<path d="M1809 5100 c-57 -30 -98 -80 -115 -138 -12 -41 -15 -91 -12 -220 3
-149 6 -171 25 -209 27 -50 86 -100 133 -113 47 -13 1393 -13 1440 0 48 13
106 63 132 113 20 37 23 62 26 202 5 195 -5 251 -56 307 -75 83 -20 78 -824
78 -678 -1 -715 -2 -749 -20z m1447 -163 c23 -27 24 -34 24 -173 0 -141 -1
-146 -25 -169 l-24 -25 -671 0 -671 0 -24 25 c-24 23 -25 29 -25 167 0 153 7
179 54 198 11 5 317 8 679 7 l659 -2 24 -28z"/>
<path d="M885 4836 c-68 -17 -104 -37 -152 -86 -53 -52 -81 -111 -94 -192 -6
-40 -9 -846 -7 -2183 3 -2430 -8 -2171 102 -2280 106 -105 -79 -95 1826 -95
1905 0 1720 -10 1826 95 110 109 99 -150 99 2325 0 1780 -2 2162 -13 2195 -23
68 -74 134 -134 175 -81 54 -142 62 -429 58 -216 -3 -239 -5 -258 -22 -28 -26
-29 -88 -1 -116 19 -19 34 -20 273 -21 302 -1 327 -7 379 -94 l23 -40 0 -2135
c0 -1997 -1 -2137 -17 -2166 -21 -39 -71 -82 -106 -92 -35 -9 -3249 -9 -3284
0 -35 10 -85 53 -106 92 -16 29 -17 169 -17 2166 l0 2135 23 40 c52 87 77 93
380 94 238 1 253 2 272 21 28 28 27 90 -1 116 -19 18 -41 19 -278 21 -178 1
-271 -2 -306 -11z"/>
<path d="M1222 4039 c-44 -13 -108 -79 -121 -126 -6 -21 -11 -130 -11 -243 0
-194 1 -208 23 -250 12 -24 39 -58 60 -74 l39 -31 240 -3 240 -3 43 26 c28 16
55 43 72 73 27 46 28 51 32 233 4 217 -5 278 -51 333 -57 69 -84 76 -323 75
-115 0 -225 -5 -243 -10z m443 -173 c14 -21 16 -53 13 -200 -2 -127 -7 -179
-16 -188 -9 -9 -61 -14 -188 -16 -242 -5 -224 -21 -224 213 0 154 3 186 16
199 13 13 45 16 199 16 184 0 185 0 200 -24z"/>
<path d="M2263 3924 c-21 -21 -24 -32 -19 -62 12 -77 -53 -72 893 -72 l844 0
24 25 c16 15 25 36 25 55 0 19 -9 40 -25 55 l-24 25 -846 0 -846 0 -26 -26z"/>
<path d="M2261 3534 c-12 -15 -21 -37 -21 -49 0 -12 9 -34 21 -49 l20 -26 448
0 c439 0 448 0 466 20 11 12 19 36 19 55 0 19 -8 43 -19 55 -18 20 -27 20
-466 20 l-448 0 -20 -26z"/>
<path d="M1205 2773 c-46 -24 -76 -54 -96 -98 -16 -35 -19 -67 -19 -256 0
-207 1 -218 23 -260 13 -24 43 -57 66 -74 l43 -30 221 -3 c253 -4 281 2 340
68 50 55 60 114 55 339 -4 201 -8 218 -65 275 -51 52 -73 56 -315 56 -183 -1
-228 -4 -253 -17z m459 -165 c13 -18 16 -54 16 -188 0 -134 -3 -170 -16 -188
-15 -21 -20 -22 -204 -22 -177 0 -190 1 -200 19 -15 29 -13 374 2 389 8 8 67
12 199 12 183 0 188 -1 203 -22z"/>
<path d="M2261 2664 c-34 -43 -21 -102 26 -123 17 -8 266 -11 849 -11 875 0
870 0 888 45 13 34 6 72 -17 93 l-23 22 -851 0 -852 0 -20 -26z"/>
<path d="M2282 2300 c-45 -18 -55 -88 -17 -125 l24 -25 436 0 c266 0 443 4
455 10 25 13 41 65 30 94 -21 56 -18 56 -480 55 -234 0 -435 -4 -448 -9z"/>
<path d="M1265 1535 c-5 -2 -22 -6 -37 -9 -39 -9 -98 -64 -119 -111 -16 -35
-19 -69 -19 -251 l0 -212 28 -53 c23 -43 38 -59 82 -82 l55 -28 222 3 221 3
44 30 c24 17 54 51 68 75 25 44 25 49 25 265 0 216 0 221 -25 265 -28 49 -73
84 -129 100 -32 9 -391 13 -416 5z m391 -169 c18 -13 19 -28 19 -201 0 -173
-1 -188 -19 -201 -15 -11 -59 -14 -195 -14 -148 0 -177 2 -193 17 -16 14 -18
35 -18 199 0 178 1 183 22 198 31 22 354 23 384 2z"/>
<path d="M2289 1429 c-27 -10 -49 -46 -49 -78 0 -10 9 -30 21 -45 l20 -26 853
0 853 0 21 23 c22 23 28 60 16 92 -18 45 -13 45 -886 44 -497 0 -833 -4 -849
-10z"/>
<path d="M2263 1024 c-21 -21 -24 -32 -20 -62 12 -70 -10 -67 474 -70 474 -3
472 -3 493 53 11 30 -5 82 -30 95 -12 6 -189 10 -455 10 l-436 0 -26 -26z"/>
</g>
</svg>
