<?xml version="1.0" standalone="no"?>
<!DOCTYPE svg PUBLIC "-//W3C//DTD SVG 20010904//EN"
 "http://www.w3.org/TR/2001/REC-SVG-20010904/DTD/svg10.dtd">
<svg version="1.0" xmlns="http://www.w3.org/2000/svg"
 width="512.000000pt" height="512.000000pt" viewBox="0 0 512.000000 512.000000"
 preserveAspectRatio="xMidYMid meet">
<metadata>
Created by potrace 1.16, written by Peter Selinger 2001-2019
</metadata>
<g transform="translate(0.000000,512.000000) scale(0.100000,-0.100000)"
fill="#000000" stroke="none">
<path d="M1290 4963 c-220 -37 -410 -212 -465 -428 -10 -41 -15 -109 -15 -222
l0 -163 -154 0 c-151 0 -155 -1 -185 -25 -61 -52 -60 -143 2 -189 25 -19 45
-21 183 -24 l154 -3 0 -370 0 -369 -150 0 c-111 0 -158 -4 -178 -14 -75 -39
-74 -166 0 -208 15 -8 79 -14 176 -16 l152 -4 0 -369 0 -369 -159 0 c-145 0
-161 -2 -184 -21 -29 -22 -51 -85 -41 -115 28 -86 47 -94 234 -94 l150 0 0
-370 0 -370 -137 -1 c-152 0 -196 -10 -226 -51 -23 -31 -27 -95 -9 -130 27
-50 57 -58 221 -58 l151 0 0 -167 c0 -186 9 -236 61 -343 43 -87 160 -204 249
-248 129 -64 63 -62 1611 -62 954 0 1424 3 1465 11 160 29 326 153 398 300 70
142 66 12 66 2094 0 1615 -2 1890 -15 1950 -45 214 -205 380 -421 435 -75 19
-113 20 -1493 19 -779 -1 -1427 -4 -1441 -6z m2931 -264 c72 -34 134 -96 168
-168 l26 -56 0 -1910 0 -1910 -26 -56 c-34 -72 -96 -134 -168 -168 l-56 -26
-1435 0 -1435 0 -50 25 c-74 36 -148 114 -173 183 -19 50 -22 79 -22 212 l0
155 145 0 c166 0 192 8 220 66 31 67 -3 144 -73 164 -20 5 -94 10 -164 10
l-128 0 0 370 0 370 151 0 c135 0 154 2 179 20 60 42 61 144 3 189 -23 19 -40
21 -179 21 l-154 0 0 369 0 369 149 3 c133 4 153 6 178 25 66 49 66 154 0 194
-28 17 -51 20 -179 20 l-148 0 0 370 0 370 135 0 c147 0 190 10 219 51 40 57
24 138 -33 172 -24 14 -55 17 -175 17 l-146 0 0 155 c0 129 3 163 19 205 36
94 115 169 219 206 30 11 306 13 1457 11 l1420 -2 56 -26z"/>
<path d="M2596 3694 c-186 -45 -348 -202 -402 -389 -23 -80 -23 -222 0 -299
57 -193 198 -335 390 -394 72 -21 225 -21 301 2 242 72 405 286 405 533 0 159
-53 288 -164 399 -140 140 -337 195 -530 148z m279 -256 c60 -31 114 -86 146
-148 34 -65 34 -204 1 -272 -77 -155 -263 -226 -412 -157 -79 37 -125 81 -162
157 -70 141 -29 298 103 395 61 45 105 57 194 54 62 -3 91 -9 130 -29z"/>
<path d="M2578 2405 c-386 -74 -668 -397 -695 -800 -5 -73 -3 -97 11 -122 34
-67 -19 -63 834 -63 833 0 813 -1 839 52 22 43 24 65 13 159 -15 131 -34 198
-91 314 -58 118 -125 204 -217 281 -77 64 -236 145 -332 168 -94 24 -268 29
-362 11z m286 -240 c169 -36 322 -153 404 -311 23 -45 48 -109 56 -143 l14
-61 -605 0 -605 0 7 33 c27 124 82 224 175 318 148 149 347 208 554 164z"/>
</g>
</svg>
