<?xml version="1.0" standalone="no"?>
<!DOCTYPE svg PUBLIC "-//W3C//DTD SVG 20010904//EN"
 "http://www.w3.org/TR/2001/REC-SVG-20010904/DTD/svg10.dtd">
<svg version="1.0" xmlns="http://www.w3.org/2000/svg"
 width="512.000000pt" height="512.000000pt" viewBox="0 0 512.000000 512.000000"
 preserveAspectRatio="xMidYMid meet">
<metadata>
Created by potrace 1.16, written by Peter Selinger 2001-2019
</metadata>
<g transform="translate(0.000000,512.000000) scale(0.100000,-0.100000)"
fill="#000000" stroke="none">
<path d="M343 5021 c-104 -38 -180 -107 -231 -211 l-27 -55 0 -2195 0 -2195
29 -60 c38 -77 114 -153 191 -191 l60 -29 1075 0 1075 0 60 29 c77 38 153 114
190 191 25 50 30 74 33 157 l4 98 977 2 976 3 60 29 c77 38 153 114 191 191
l29 60 0 835 0 835 -28 58 c-16 31 -50 80 -77 107 l-49 50 -3 212 c-3 212 -3
213 -32 273 -59 120 -184 211 -305 222 l-61 6 0 104 c0 177 -50 353 -146 515
-67 114 -238 285 -352 352 -172 102 -336 146 -544 146 -212 -1 -382 -48 -551
-154 l-86 -54 -3 202 c-3 199 -3 202 -32 261 -38 77 -114 153 -191 191 l-60
29 -1060 2 c-1014 2 -1062 2 -1112 -16z m2142 -164 c90 -41 139 -115 151 -230
l7 -67 -1203 0 -1203 0 7 66 c8 82 27 129 69 172 39 42 80 64 132 73 22 4 481
6 1020 5 921 -1 982 -2 1020 -19z m155 -557 l0 -99 -57 -83 c-120 -176 -173
-334 -180 -540 l-6 -136 -136 -4 c-127 -3 -140 -5 -196 -32 -77 -38 -153 -114
-191 -191 l-29 -60 -3 -1138 -2 -1137 -800 0 -800 0 0 1760 0 1760 1200 0
1200 0 0 -100z m999 69 c318 -73 574 -329 651 -650 27 -115 27 -283 0 -399
-42 -172 -155 -356 -288 -466 l-66 -54 -208 0 -208 0 0 84 0 84 29 7 c41 9
116 65 151 112 42 57 60 115 60 194 0 180 -115 302 -305 323 -32 4 -73 15 -90
24 -133 78 -79 282 75 282 74 0 150 -64 150 -127 0 -22 4 -23 85 -23 l85 0 0
34 c0 46 -24 110 -60 159 -35 47 -110 103 -151 112 l-29 7 0 84 0 84 -80 0
-80 0 0 -84 0 -84 -29 -7 c-41 -9 -116 -65 -151 -112 -42 -57 -60 -115 -60
-194 0 -180 115 -302 305 -323 105 -12 165 -68 165 -155 0 -153 -200 -209
-280 -79 -11 18 -20 43 -20 56 0 21 -4 22 -85 22 l-85 0 0 -34 c0 -46 24 -110
60 -159 35 -47 110 -103 151 -112 l29 -7 0 -84 0 -84 -208 0 -208 0 -66 54
c-133 110 -246 294 -288 466 -29 124 -28 287 4 413 117 462 580 743 1045 636z
m-1193 -1169 c13 -41 24 -76 24 -77 0 -2 -52 -3 -115 -3 l-115 0 0 -80 0 -80
159 0 c157 0 159 0 175 -24 9 -14 36 -50 62 -81 l46 -57 -244 4 c-205 3 -249
6 -283 21 -152 68 -194 259 -82 375 62 65 115 81 260 78 l89 -1 24 -75z m2113
58 c47 -15 110 -75 134 -128 17 -36 21 -73 25 -187 l5 -143 -262 0 -261 0 47
58 c90 111 155 230 189 350 9 32 18 60 21 64 4 8 50 2 102 -14z m-1155 -618
c1206 -5 1283 -6 1321 -23 55 -25 103 -73 128 -127 17 -37 21 -72 25 -187 l5
-143 -526 0 c-487 0 -530 -1 -586 -19 -147 -46 -272 -172 -315 -320 -21 -71
-21 -211 0 -282 43 -148 168 -274 315 -320 56 -18 99 -19 586 -19 l526 0 -5
-142 c-5 -165 -19 -210 -85 -269 -75 -68 7 -64 -1353 -64 -1020 0 -1242 2
-1274 14 -53 18 -115 77 -140 131 -21 44 -21 56 -24 942 l-3 897 62 -32 62
-32 1281 -5z m1476 -960 l0 -320 -467 0 c-484 0 -565 5 -635 41 -50 26 -111
87 -140 141 -19 36 -23 58 -23 138 0 79 4 102 23 137 50 95 132 155 233 172
30 5 269 9 532 10 l477 1 0 -320z m-2921 -1009 c28 -27 77 -62 108 -78 l58
-28 259 -3 259 -3 -7 -67 c-9 -85 -33 -138 -83 -183 -75 -67 -17 -64 -1113
-64 -1096 0 -1038 -3 -1113 64 -66 59 -80 104 -85 269 l-5 142 836 0 836 0 50
-49z"/>
<path d="M2000 4000 l0 -80 -80 0 -80 0 0 -80 0 -80 80 0 80 0 0 -80 0 -80 80
0 80 0 0 80 0 80 80 0 80 0 0 80 0 80 -80 0 -80 0 0 80 0 80 -80 0 -80 0 0
-80z m160 -160 l0 -80 -80 0 -80 0 0 80 0 80 80 0 80 0 0 -80z"/>
<path d="M2720 3520 l0 -80 80 0 80 0 0 80 0 80 -80 0 -80 0 0 -80z"/>
<path d="M4000 3520 l0 -80 80 0 80 0 0 80 0 80 -80 0 -80 0 0 -80z"/>
<path d="M3760 1680 l0 -80 80 0 80 0 0 80 0 80 -80 0 -80 0 0 -80z"/>
<path d="M1200 480 l0 -80 240 0 240 0 0 80 0 80 -240 0 -240 0 0 -80z"/>
<path d="M4080 4960 l0 -80 -80 0 -80 0 0 -80 0 -80 80 0 80 0 0 -80 0 -80 80
0 80 0 0 80 0 80 80 0 80 0 0 80 0 80 -80 0 -80 0 0 80 0 80 -80 0 -80 0 0
-80z m160 -160 l0 -80 -80 0 -80 0 0 80 0 80 80 0 80 0 0 -80z"/>
<path d="M4720 4160 l0 -80 -80 0 -80 0 0 -80 0 -80 80 0 80 0 0 -80 0 -80 80
0 80 0 0 80 0 80 80 0 80 0 0 80 0 80 -80 0 -80 0 0 80 0 80 -80 0 -80 0 0
-80z m160 -160 l0 -80 -80 0 -80 0 0 80 0 80 80 0 80 0 0 -80z"/>
</g>
</svg>
