<?xml version="1.0" standalone="no"?>
<!DOCTYPE svg PUBLIC "-//W3C//DTD SVG 20010904//EN"
 "http://www.w3.org/TR/2001/REC-SVG-20010904/DTD/svg10.dtd">
<svg version="1.0" xmlns="http://www.w3.org/2000/svg"
 width="512.000000pt" height="512.000000pt" viewBox="0 0 512.000000 512.000000"
 preserveAspectRatio="xMidYMid meet">
<metadata>
Created by potrace 1.16, written by Peter Selinger 2001-2019
</metadata>
<g transform="translate(0.000000,512.000000) scale(0.100000,-0.100000)"
fill="#000000" stroke="none">
<path d="M3194 5100 c-22 -11 -54 -35 -71 -53 -17 -17 -369 -464 -783 -992
l-752 -959 -761 -511 c-701 -470 -764 -514 -791 -559 -37 -60 -47 -159 -23
-219 18 -42 1127 -1698 1165 -1739 46 -50 106 -70 193 -66 l76 3 252 168 c152
101 257 165 264 160 7 -4 55 -40 107 -81 125 -98 157 -113 235 -114 73 0 135
24 180 70 17 17 208 258 425 535 l395 503 814 545 c448 299 832 559 854 578
71 63 101 161 78 249 -7 24 -72 132 -151 252 -77 116 -140 215 -140 221 0 6
72 102 160 214 88 112 169 223 180 247 40 89 21 195 -50 269 -56 59 -1589
1256 -1641 1281 -53 25 -161 24 -215 -2z m423 -357 c153 -119 503 -392 778
-606 275 -214 515 -404 533 -423 53 -56 48 -73 -84 -241 -64 -81 -130 -167
-148 -190 -17 -23 -34 -42 -37 -43 -3 0 -179 257 -390 571 -218 326 -396 581
-414 594 -75 55 -185 66 -262 27 -75 -39 -713 -472 -723 -492 -17 -32 -11 -60
20 -92 39 -39 66 -34 157 26 l67 45 33 -39 c81 -95 250 -192 398 -230 163 -42
384 -23 533 45 30 14 56 24 57 23 1 -2 88 -131 194 -287 l191 -284 -63 -67
c-85 -90 -149 -195 -188 -310 -29 -83 -33 -111 -37 -227 -5 -148 9 -235 58
-353 l28 -69 -1186 -794 -1186 -794 -58 57 c-101 101 -226 172 -373 211 -61
16 -110 21 -205 21 -135 0 -225 -18 -331 -65 l-57 -25 -188 281 c-104 154
-191 284 -192 289 -2 4 24 36 58 70 223 226 293 587 170 882 -16 38 -27 72
-25 77 3 4 427 290 943 634 515 345 947 637 960 648 48 44 11 137 -56 137 -21
0 -103 -50 -298 -182 -148 -100 -264 -175 -258 -167 266 345 1185 1512 1205
1532 59 55 68 51 376 -190z m112 -454 c26 -9 57 -49 171 -220 77 -114 140
-210 140 -212 0 -8 -73 -35 -140 -52 -82 -21 -228 -21 -311 0 -35 9 -95 32
-134 50 -74 36 -195 129 -195 150 0 12 369 267 412 284 13 6 23 10 24 10 1 1
15 -4 33 -10z m1030 -1500 c126 -187 142 -216 137 -242 -4 -17 -13 -38 -22
-48 -24 -27 -414 -283 -420 -276 -3 3 -17 36 -31 74 -20 54 -27 92 -31 183 -5
137 16 235 76 342 36 65 125 178 141 178 4 0 72 -95 150 -211z m-4124 -636
c75 -220 21 -481 -134 -646 l-58 -61 -142 212 c-145 217 -157 245 -126 286 17
22 404 284 422 285 6 1 23 -34 38 -76z m2219 -1215 c-13 -20 -402 -517 -452
-576 -51 -61 -80 -76 -117 -62 -28 11 -176 124 -177 136 0 6 737 510 750 513
2 1 0 -5 -4 -11z m-1377 -294 c83 -21 172 -66 240 -120 55 -44 89 -82 81 -89
-2 -1 -94 -64 -205 -139 -215 -144 -247 -157 -291 -118 -11 9 -80 107 -155
218 l-135 200 56 22 c137 52 274 61 409 26z"/>
<path d="M3814 3185 c-104 -69 -197 -135 -206 -147 -40 -46 -2 -128 59 -128
19 0 88 40 218 126 105 69 196 133 203 142 6 9 12 32 12 52 0 43 -21 67 -67
76 -27 5 -53 -9 -219 -121z"/>
<path d="M2324 3195 c-394 -90 -686 -385 -766 -774 -26 -125 -21 -325 11 -446
23 -88 92 -239 143 -312 94 -137 267 -279 417 -343 93 -40 216 -72 247 -64 48
12 71 86 41 128 -7 9 -52 28 -101 42 -384 108 -633 448 -613 838 11 226 94
405 260 562 369 352 969 284 1252 -140 167 -251 188 -540 60 -811 -93 -199
-243 -339 -450 -420 -49 -19 -97 -42 -107 -52 -43 -39 -3 -133 56 -133 30 0
129 36 206 75 195 98 361 273 452 473 58 129 81 240 81 402 0 100 -5 168 -16
217 -82 357 -341 633 -694 739 -77 23 -109 27 -253 30 -115 2 -183 -1 -226
-11z"/>
<path d="M2115 2795 c-30 -29 -31 -59 -4 -104 l20 -34 -32 -66 c-63 -127 -39
-268 61 -353 52 -45 98 -58 206 -58 l89 0 100 -151 c55 -83 101 -155 103 -159
5 -12 -57 -30 -103 -30 -62 0 -95 -29 -95 -84 0 -61 20 -76 101 -76 40 0 89 9
131 23 l68 23 25 -38 c22 -33 30 -38 63 -38 80 0 113 62 68 130 -14 22 -26 41
-26 44 0 2 15 27 34 54 103 154 47 391 -110 468 -63 31 -171 42 -241 26 l-43
-10 -84 122 c-46 66 -82 123 -81 124 2 2 30 5 62 7 45 3 62 9 75 26 25 30 23
84 -3 110 -19 19 -29 20 -102 16 -45 -3 -93 -8 -107 -12 -21 -5 -29 0 -48 30
-19 31 -27 35 -63 35 -29 0 -47 -7 -64 -25z m599 -579 c74 -31 117 -118 96
-196 -6 -22 -14 -40 -19 -40 -13 0 -162 230 -156 240 9 14 40 12 79 -4z"/>
<path d="M1170 1415 c-102 -69 -193 -134 -202 -146 -40 -48 -4 -119 61 -119
32 0 68 20 229 128 205 136 221 153 200 212 -5 17 -18 35 -28 40 -43 23 -74 9
-260 -115z"/>
</g>
</svg>
