<?xml version="1.0" standalone="no"?>
<!DOCTYPE svg PUBLIC "-//W3C//DTD SVG 20010904//EN"
 "http://www.w3.org/TR/2001/REC-SVG-20010904/DTD/svg10.dtd">
<svg version="1.0" xmlns="http://www.w3.org/2000/svg"
 width="512.000000pt" height="512.000000pt" viewBox="0 0 512.000000 512.000000"
 preserveAspectRatio="xMidYMid meet">
<metadata>
Created by potrace 1.16, written by Peter Selinger 2001-2019
</metadata>
<g transform="translate(0.000000,512.000000) scale(0.100000,-0.100000)"
fill="#000000" stroke="none">
<path d="M1270 5025 c-130 -29 -234 -79 -359 -174 -42 -31 -98 -65 -126 -76
-75 -27 -144 -75 -202 -138 -100 -110 -145 -256 -125 -402 10 -67 24 -105 87
-233 41 -84 75 -155 75 -158 0 -2 -12 -4 -27 -4 -44 -1 -115 -43 -150 -89 -71
-92 -71 -210 0 -302 39 -51 107 -88 164 -89 l41 0 22 -72 c56 -183 172 -339
333 -446 l38 -25 -3 -99 -3 -100 -377 -157 c-208 -87 -396 -171 -418 -186 -50
-34 -90 -84 -127 -156 l-28 -54 -3 -612 c-3 -604 -2 -613 18 -633 19 -19 32
-20 320 -20 l300 0 0 -340 c0 -327 1 -341 20 -360 20 -20 33 -20 1820 -20
1787 0 1800 0 1820 20 19 19 20 33 20 360 l0 340 300 0 c288 0 301 1 320 20
20 20 21 29 18 633 l-3 612 -30 59 c-33 65 -107 146 -158 173 -18 9 -196 85
-397 169 l-365 152 -3 98 -2 99 82 60 c135 99 237 246 288 413 l22 72 41 0
c55 0 134 46 170 97 59 85 58 207 -3 291 -30 41 -116 92 -157 92 -13 0 -23 3
-23 7 0 4 20 55 45 113 66 158 78 214 73 345 -7 173 -64 307 -178 425 -72 74
-134 113 -310 192 -227 103 -267 113 -445 113 -113 0 -166 -5 -215 -18 -97
-27 -214 -87 -310 -159 -47 -35 -107 -72 -135 -83 -75 -27 -144 -75 -202 -138
-111 -122 -152 -281 -116 -457 l5 -25 -139 0 c-76 0 -151 -3 -168 -7 l-30 -6
0 136 c-1 122 -4 145 -27 210 -38 105 -83 176 -162 255 -61 61 -86 77 -231
148 -89 43 -205 93 -256 110 -84 29 -109 32 -229 35 -93 3 -155 -1 -200 -11z
m318 -170 c72 -17 333 -131 403 -176 98 -63 168 -160 204 -284 32 -108 4 -304
-49 -341 -11 -8 -59 -43 -106 -77 -47 -35 -107 -71 -135 -82 -234 -87 -372
-332 -322 -571 10 -46 40 -120 86 -212 39 -78 71 -144 71 -147 0 -3 -27 -5
-60 -5 -144 0 -240 -96 -240 -240 0 -77 22 -130 71 -177 49 -47 97 -63 183
-63 l74 0 22 -72 c52 -172 167 -329 313 -430 l58 -39 -3 -97 -3 -97 -595 -165
c-418 -116 -610 -174 -644 -194 -71 -41 -124 -100 -159 -174 -27 -57 -33 -81
-35 -159 l-4 -93 -240 0 -239 0 3 518 c3 568 2 558 66 625 37 40 58 49 487
228 209 87 386 166 393 176 13 18 18 375 6 407 -4 9 -38 37 -78 62 -166 107
-266 251 -301 436 -17 93 -33 108 -107 108 -106 0 -151 36 -134 106 9 33 59
54 131 54 80 0 95 18 95 115 0 74 -2 78 -75 226 -94 187 -111 248 -95 334 23
124 103 217 223 260 38 14 99 50 153 91 96 72 196 125 284 148 72 19 219 20
298 1z m2240 0 c72 -17 333 -131 403 -176 133 -85 219 -242 219 -399 0 -86
-18 -150 -79 -289 -58 -131 -66 -163 -56 -227 9 -65 32 -84 100 -84 72 0 122
-21 131 -54 17 -70 -28 -106 -134 -106 -75 0 -89 -14 -109 -112 -39 -190 -129
-320 -299 -432 -52 -34 -81 -60 -85 -76 -12 -42 -10 -334 2 -369 6 -17 23 -38
38 -45 14 -8 186 -80 381 -161 403 -168 435 -182 472 -222 64 -67 63 -57 66
-625 l3 -518 -239 0 -240 0 -4 92 c-2 79 -8 103 -35 160 -35 74 -102 146 -167
181 -23 11 -309 96 -636 187 l-595 166 -3 96 -3 97 58 39 c146 101 261 258
313 430 l22 72 74 0 c86 0 134 16 183 63 49 47 71 100 71 177 0 144 -96 240
-240 240 -33 0 -60 3 -60 7 0 4 20 55 45 113 66 158 78 214 73 345 -7 173 -64
307 -178 425 -69 71 -135 114 -273 176 -104 46 -110 50 -133 96 -43 85 -58
161 -44 233 23 124 103 217 223 260 38 14 99 50 153 91 96 72 196 125 284 148
72 19 219 20 298 1z m-1107 -884 c84 -22 336 -134 401 -179 128 -88 208 -239
208 -392 0 -68 -20 -162 -44 -208 -14 -26 -14 -26 -59 65 -25 50 -53 93 -62
97 -47 18 -81 6 -175 -64 -165 -121 -270 -160 -430 -160 -160 0 -265 39 -430
160 -96 71 -135 84 -178 61 -9 -5 -37 -50 -62 -100 -24 -50 -47 -91 -50 -91
-12 0 -79 153 -90 205 -24 107 28 241 120 314 69 54 133 74 228 70 117 -6 212
-60 292 -167 l25 -33 68 46 c37 25 67 49 67 53 0 15 -90 120 -132 155 -24 20
-75 51 -112 68 l-69 32 48 24 c120 62 298 79 436 44z m-516 -932 c117 -57 214
-79 355 -79 181 0 347 52 477 151 l53 39 56 -112 57 -113 -6 -190 c-4 -126
-12 -210 -22 -250 -49 -179 -175 -333 -340 -414 -311 -152 -689 -20 -844 294
-50 102 -62 163 -68 370 l-6 190 57 113 56 113 48 -36 c25 -20 83 -54 127 -76z
m-445 -319 l0 -80 -35 0 c-54 0 -103 24 -111 54 -16 64 26 105 109 106 l37 0
0 -80z m1705 66 c37 -16 52 -48 41 -92 -8 -30 -57 -54 -111 -54 l-35 0 0 80 0
80 35 0 c20 0 51 -6 70 -14z m-1065 -935 c89 -20 293 -12 383 15 15 5 17 -3
17 -68 l0 -73 -120 -120 -120 -120 -120 120 -120 120 0 73 c0 65 2 73 18 68 9
-3 37 -10 62 -15z m-35 -421 c149 -147 152 -150 195 -150 43 0 46 3 196 152
l153 151 513 -142 c282 -78 552 -154 601 -168 102 -30 153 -69 189 -141 23
-47 23 -50 26 -469 l3 -423 -240 0 -241 0 0 320 0 320 -80 0 -80 0 0 -320 0
-320 -1040 0 -1040 0 0 320 0 320 -80 0 -80 0 0 -320 0 -320 -241 0 -240 0 3
422 c3 420 3 423 26 470 36 74 88 111 195 142 188 55 1083 304 1097 305 8 0
82 -66 165 -149z"/>
</g>
</svg>
