<?xml version="1.0" standalone="no"?>
<!DOCTYPE svg PUBLIC "-//W3C//DTD SVG 20010904//EN"
 "http://www.w3.org/TR/2001/REC-SVG-20010904/DTD/svg10.dtd">
<svg version="1.0" xmlns="http://www.w3.org/2000/svg"
 width="512.000000pt" height="512.000000pt" viewBox="0 0 512.000000 512.000000"
 preserveAspectRatio="xMidYMid meet">
<metadata>
Created by potrace 1.16, written by Peter Selinger 2001-2019
</metadata>
<g transform="translate(0.000000,512.000000) scale(0.100000,-0.100000)"
fill="#000000" stroke="none">
<path d="M2285 5113 c-556 -59 -1010 -264 -1437 -647 -113 -101 -138 -140
-119 -187 5 -13 411 -426 903 -916 825 -825 896 -893 926 -893 46 0 92 46 92
91 0 28 -17 49 -125 159 -69 69 -125 129 -125 132 0 17 91 40 155 40 81 0 138
-18 199 -63 88 -63 137 -160 137 -269 0 -109 -49 -206 -137 -269 -60 -44 -118
-62 -194 -62 -76 0 -134 18 -194 62 -80 57 -127 140 -140 250 -10 84 -61 125
-125 103 -108 -38 -53 -300 95 -448 100 -100 221 -150 364 -150 143 0 264 50
364 150 100 100 150 221 150 364 0 143 -50 264 -150 364 -101 101 -222 150
-364 149 -104 -1 -166 -15 -244 -54 l-59 -30 -174 173 c-95 95 -173 175 -173
178 1 12 101 77 184 121 194 100 389 136 593 108 464 -62 823 -425 884 -894
37 -284 -64 -589 -265 -802 -97 -102 -183 -168 -293 -222 -125 -62 -134 -62
-166 -8 -30 51 -104 109 -168 133 -57 21 -181 21 -238 0 -64 -24 -138 -82
-168 -133 -32 -54 -41 -54 -166 8 -213 105 -391 294 -485 517 -57 133 -76 232
-76 387 1 156 20 261 74 388 35 84 38 125 9 161 -16 21 -29 26 -64 26 -56 0
-74 -19 -114 -119 -152 -381 -107 -798 120 -1133 58 -86 180 -211 270 -278 83
-62 220 -135 317 -170 34 -13 62 -29 62 -36 0 -36 46 -129 87 -174 136 -151
370 -151 506 0 41 45 87 138 87 174 0 7 28 23 63 36 34 12 102 43 151 68 437
224 693 703 637 1192 -65 560 -492 991 -1051 1060 -117 14 -194 13 -319 -6
-211 -31 -382 -107 -590 -261 -14 -11 -40 11 -191 163 l-175 175 45 40 c172
152 466 300 703 354 442 101 905 25 1283 -212 58 -37 60 -39 52 -68 -5 -16 -9
-63 -9 -103 -1 -132 73 -245 198 -304 51 -24 75 -29 135 -29 40 0 87 4 103 9
29 8 31 6 74 -62 275 -441 326 -998 136 -1497 -169 -441 -533 -805 -974 -974
-399 -152 -823 -152 -1222 0 -441 169 -805 533 -974 974 -190 499 -143 1029
134 1496 26 44 41 82 41 103 0 76 -99 112 -152 55 -34 -38 -90 -134 -139 -237
-130 -278 -187 -561 -176 -866 13 -339 96 -627 259 -898 289 -481 759 -803
1313 -899 139 -24 471 -24 610 0 554 96 1024 418 1313 899 239 396 319 895
220 1358 -42 198 -137 433 -242 594 l-44 70 28 50 c74 132 50 303 -57 409
-107 108 -277 131 -409 57 l-51 -29 -53 36 c-29 19 -99 59 -155 88 -520 267
-1145 274 -1670 19 -131 -63 -260 -145 -371 -236 l-81 -66 -176 176 -176 177
78 68 c337 292 689 460 1128 538 150 27 489 37 655 20 426 -44 834 -204 1188
-467 135 -100 374 -339 474 -474 213 -288 362 -616 430 -950 35 -172 46 -291
46 -483 0 -385 -90 -752 -269 -1094 -60 -113 -181 -306 -201 -318 -5 -3 -20 1
-32 9 -46 29 -139 49 -201 42 -169 -17 -296 -144 -313 -313 -7 -62 13 -155 42
-201 8 -12 12 -27 9 -32 -12 -20 -205 -141 -318 -201 -343 -179 -708 -269
-1094 -269 -192 0 -311 11 -483 46 -334 68 -662 217 -950 430 -135 100 -374
339 -474 474 -263 354 -423 762 -467 1189 -16 155 -6 482 20 626 52 295 149
568 286 801 59 100 69 149 40 191 -21 31 -78 40 -111 19 -33 -22 -85 -104
-156 -249 -137 -277 -217 -543 -254 -847 -22 -184 -15 -542 15 -716 91 -530
319 -982 691 -1368 382 -396 870 -652 1424 -747 177 -31 533 -37 716 -14 439
56 843 211 1187 458 83 59 85 60 122 48 50 -14 139 -14 195 1 103 27 207 131
234 234 15 56 15 145 1 195 -12 37 -11 39 48 121 248 348 402 747 458 1188 23
183 17 539 -14 716 -95 554 -351 1042 -747 1424 -386 372 -836 599 -1368 692
-98 16 -172 21 -386 23 -146 2 -283 1 -305 -2z m1631 -1129 c49 -23 77 -68 82
-129 8 -98 -48 -165 -144 -173 -62 -5 -115 17 -147 62 -31 44 -31 148 0 192
43 60 137 82 209 48z m-1265 -2399 c49 -32 72 -84 67 -150 -5 -60 -27 -95 -79
-124 -69 -39 -165 -18 -213 46 -28 37 -33 120 -11 167 42 88 149 116 236 61z
m1686 -586 c91 -44 121 -163 60 -242 -82 -108 -247 -77 -288 55 -16 50 -4 102
34 145 57 64 119 78 194 42z"/>
</g>
</svg>
