<?xml version="1.0" standalone="no"?>
<!DOCTYPE svg PUBLIC "-//W3C//DTD SVG 20010904//EN"
 "http://www.w3.org/TR/2001/REC-SVG-20010904/DTD/svg10.dtd">
<svg version="1.0" xmlns="http://www.w3.org/2000/svg"
 width="512.000000pt" height="512.000000pt" viewBox="0 0 512.000000 512.000000"
 preserveAspectRatio="xMidYMid meet">
<metadata>
Created by potrace 1.16, written by Peter Selinger 2001-2019
</metadata>
<g transform="translate(0.000000,512.000000) scale(0.100000,-0.100000)"
fill="#000000" stroke="none">
<path d="M2207 5105 c-88 -33 -173 -123 -196 -207 -9 -35 -61 -415 -61 -447 0
-5 -24 -17 -52 -27 -29 -9 -93 -34 -142 -55 -49 -22 -92 -39 -96 -39 -3 0 -84
61 -180 135 -195 151 -234 170 -345 169 -118 -1 -141 -16 -383 -257 -230 -229
-256 -265 -268 -369 -5 -43 -2 -72 14 -125 18 -58 40 -93 157 -242 74 -96 135
-178 135 -181 0 -4 -17 -47 -39 -96 -21 -49 -46 -113 -55 -141 -10 -29 -23
-53 -29 -53 -7 -1 -109 -13 -228 -29 -240 -31 -278 -43 -348 -113 -23 -23 -51
-63 -64 -88 -21 -44 -22 -53 -22 -380 0 -327 1 -336 22 -380 13 -25 41 -65 64
-88 70 -70 108 -82 348 -113 119 -16 221 -28 228 -29 6 0 19 -24 29 -52 9 -29
34 -93 55 -142 22 -49 39 -92 39 -96 0 -3 -61 -85 -135 -181 -117 -149 -139
-184 -157 -242 -15 -52 -19 -82 -14 -124 13 -108 31 -133 264 -366 246 -245
268 -260 387 -261 111 -1 150 18 345 169 96 74 177 135 182 135 4 0 47 -17 95
-39 48 -21 112 -46 141 -55 28 -10 52 -23 52 -29 0 -7 13 -109 29 -227 31
-240 45 -281 114 -349 23 -23 62 -51 87 -64 44 -21 53 -22 380 -22 327 0 336
1 380 22 25 13 65 41 88 64 69 69 82 107 113 348 16 119 29 221 29 228 0 6 24
19 53 29 28 9 92 34 141 55 49 22 92 39 96 39 3 0 84 -61 180 -135 195 -151
234 -170 345 -169 119 1 142 17 383 257 245 244 264 272 266 390 1 113 -17
151 -169 347 -74 96 -135 177 -135 180 0 4 17 47 39 96 21 49 46 113 55 142
10 28 20 52 23 52 4 0 97 11 207 25 265 33 295 43 372 119 94 94 95 100 92
482 -3 307 -4 321 -25 364 -13 25 -41 65 -64 88 -70 70 -108 82 -348 113 -119
16 -221 28 -228 29 -6 0 -19 24 -29 53 -9 28 -34 92 -55 141 -22 49 -39 92
-39 96 0 3 61 84 135 180 151 195 170 234 169 346 0 116 -20 146 -266 391
-241 240 -264 256 -383 257 -111 1 -150 -18 -345 -169 -96 -74 -177 -135 -180
-135 -4 0 -47 17 -96 39 -49 21 -113 46 -141 55 -29 10 -53 23 -53 29 0 7 -13
109 -29 228 -31 241 -44 279 -113 348 -23 23 -63 51 -88 64 -43 21 -56 22
-370 24 -261 2 -333 -1 -363 -12z m556 -1506 c214 -43 376 -129 533 -284 151
-148 239 -297 292 -494 23 -85 26 -115 26 -261 0 -146 -3 -176 -26 -261 -53
-197 -141 -346 -292 -494 -348 -342 -856 -403 -1282 -152 -124 72 -289 237
-361 361 -204 346 -204 749 -1 1090 61 102 179 233 276 306 236 177 547 248
835 189z"/>
</g>
</svg>
