<?xml version="1.0" standalone="no"?>
<!DOCTYPE svg PUBLIC "-//W3C//DTD SVG 20010904//EN"
 "http://www.w3.org/TR/2001/REC-SVG-20010904/DTD/svg10.dtd">
<svg version="1.0" xmlns="http://www.w3.org/2000/svg"
 width="512.000000pt" height="512.000000pt" viewBox="0 0 512.000000 512.000000"
 preserveAspectRatio="xMidYMid meet">
<metadata>
Created by potrace 1.16, written by Peter Selinger 2001-2019
</metadata>
<g transform="translate(0.000000,512.000000) scale(0.100000,-0.100000)"
fill="#000000" stroke="none">
<path d="M720 5098 c-76 -29 -160 -114 -188 -191 -22 -57 -22 -69 -22 -602 l0
-544 -151 -3 c-145 -3 -152 -4 -170 -27 -18 -22 -19 -43 -19 -318 l0 -294 25
-24 c23 -24 28 -25 170 -25 l145 0 0 -488 0 -489 26 -24 c25 -24 28 -24 255
-27 l228 -3 3 -897 3 -897 34 -63 c42 -77 105 -135 177 -162 54 -20 71 -20
1539 -20 1360 0 1488 1 1527 17 188 73 277 288 194 469 -56 122 -161 190 -309
201 l-87 6 0 673 0 673 399 3 399 3 26 24 26 24 0 297 0 297 -26 24 -26 24
-399 3 -399 3 0 1002 c0 1106 2 1067 -63 1176 -42 69 -106 126 -187 165 l-65
31 -1505 2 -1505 2 -55 -21z m229 -188 c18 -12 42 -41 52 -64 17 -38 19 -76
19 -563 l0 -523 -165 0 -166 0 3 539 c3 530 3 540 24 568 11 15 36 39 55 51
45 31 129 28 178 -8z m2832 3 c60 -31 112 -92 129 -151 6 -24 10 -377 10
-1029 l0 -993 -720 0 -720 0 0 54 c0 84 -55 133 -121 107 -25 -9 -534 -429
-557 -459 -20 -26 -15 -88 11 -115 37 -41 508 -429 539 -444 67 -34 128 15
128 103 l0 54 720 0 720 0 0 -675 0 -675 -1170 -2 -1169 -3 -23 -23 c-22 -21
-23 -32 -28 -201 -5 -176 -5 -178 -33 -214 -36 -48 -75 -67 -132 -67 -57 0
-96 19 -132 67 l-28 36 -3 1394 -2 1393 719 0 719 0 4 -66 c5 -79 26 -104 89
-104 36 0 58 16 281 201 318 264 318 264 318 311 0 27 -7 46 -27 67 -37 38
-503 425 -530 440 -37 19 -73 13 -104 -18 -25 -26 -29 -37 -29 -85 l0 -56
-720 0 -720 0 0 538 c-1 492 -2 541 -19 590 l-18 52 1282 0 1281 0 55 -27z
m-816 -1387 c66 -54 123 -102 128 -106 4 -3 -55 -58 -131 -122 l-139 -116 -25
32 -25 31 -1212 3 -1211 2 0 165 0 165 1209 0 1209 0 28 29 c15 17 33 27 38
24 6 -4 65 -52 131 -107z m-1945 -881 l0 -425 -165 0 -165 0 0 425 0 425 165
0 165 0 0 -425z m2539 -85 l1211 0 0 -170 0 -170 -1210 0 c-1170 0 -1211 -1
-1229 -19 -10 -10 -21 -25 -23 -32 -4 -12 -8 -11 -24 2 -10 9 -72 60 -137 114
-65 54 -116 102 -115 107 2 5 62 58 133 117 l130 108 26 -28 27 -29 1211 0z
m666 -2061 c80 -23 137 -117 116 -194 -13 -49 -45 -90 -85 -109 -31 -14 -153
-16 -1305 -16 -699 0 -1271 3 -1271 8 0 4 7 25 15 47 9 26 14 81 15 158 l0
117 1238 0 c867 0 1249 -3 1277 -11z"/>
<path d="M1530 4520 l0 -90 430 0 430 0 0 90 0 90 -430 0 -430 0 0 -90z"/>
<path d="M1530 4180 l0 -90 430 0 430 0 0 90 0 90 -430 0 -430 0 0 -90z"/>
<path d="M3070 1620 l0 -90 260 0 260 0 0 90 0 90 -260 0 -260 0 0 -90z"/>
<path d="M1870 1280 l0 -90 860 0 860 0 0 90 0 90 -860 0 -860 0 0 -90z"/>
<path d="M1870 940 l0 -90 860 0 860 0 0 90 0 90 -860 0 -860 0 0 -90z"/>
</g>
</svg>
