<?xml version="1.0" standalone="no"?>
<!DOCTYPE svg PUBLIC "-//W3C//DTD SVG 20010904//EN"
 "http://www.w3.org/TR/2001/REC-SVG-20010904/DTD/svg10.dtd">
<svg version="1.0" xmlns="http://www.w3.org/2000/svg"
 width="512.000000pt" height="512.000000pt" viewBox="0 0 512.000000 512.000000"
 preserveAspectRatio="xMidYMid meet">
<metadata>
Created by potrace 1.16, written by Peter Selinger 2001-2019
</metadata>
<g transform="translate(0.000000,512.000000) scale(0.100000,-0.100000)"
fill="#000000" stroke="none">
<path d="M2372 5055 c-355 -64 -649 -284 -803 -600 -94 -193 -131 -395 -110
-596 53 -503 419 -899 910 -983 496 -85 980 166 1191 617 254 541 35 1185
-496 1457 -203 104 -471 145 -692 105z"/>
<path d="M2345 2534 c-425 -46 -821 -202 -1160 -457 -122 -92 -342 -318 -391
-402 -96 -164 -129 -301 -122 -499 5 -111 10 -146 36 -226 38 -114 107 -238
181 -321 167 -189 586 -397 1005 -499 234 -58 374 -74 656 -74 328 -1 515 24
805 108 225 64 513 193 695 310 101 65 224 193 279 291 93 163 127 305 118
496 -11 260 -94 427 -321 646 -273 266 -579 442 -946 548 -201 58 -338 77
-580 80 -118 2 -233 1 -255 -1z"/>
</g>
</svg>
